<svg version="1.0" xmlns="http://www.w3.org/2000/svg"  width="1024.000000pt" height="288.000000pt" viewBox="0 0 1024.000000 288.000000"  preserveAspectRatio="xMidYMid meet">  <g transform="translate(0.000000,288.000000) scale(0.100000,-0.100000)" fill="#000000" stroke="none"> <path d="M1379 2871 c-76 -15 -139 -79 -139 -141 0 -17 -4 -21 -17 -15 -83 34 -181 31 -261 -7 l-52 -25 -56 29 c-71 35 -124 36 -189 3 l-49 -24 -53 26 c-63 30 -127 29 -191 -5 l-40 -20 -48 24 c-108 55 -251 3 -274 -100 -10 -44 2 -39 32 15 43 77 139 101 236 59 l53 -23 47 22 c57 27 129 26 186 -1 49 -22 57 -22 98 0 57 32 124 30 193 -4 l53 -27 59 26 c72 32 142 39 212 21 49 -13 56 -13 73 2 10 10 18 27 18 38 0 35 29 66 86 93 30 14 57 29 60 34 3 5 4 8 2 8 -2 -1 -19 -4 -39 -8z"/> <path d="M1430 2875 c0 -3 30 -19 66 -36 52 -25 69 -38 82 -68 19 -40 36 -61 50 -61 18 0 112 -43 112 -51 0 -5 5 -9 11 -9 6 0 17 -7 25 -15 22 -22 36 -19 90 18 68 46 107 60 167 60 86 -1 124 -14 217 -76 22 -14 28 -14 50 -2 27 15 103 52 135 65 56 24 141 16 219 -20 53 -24 69 -25 86 -5 7 8 16 12 21 9 5 -3 9 -1 9 5 0 11 74 26 110 22 14 -2 47 -12 74 -24 46 -19 50 -20 80 -4 17 9 49 20 71 23 48 7 61 17 85 64 23 45 39 59 87 75 48 17 56 36 11 26 -62 -14 -107 -51 -127 -103 -8 -22 -17 -28 -39 -28 -16 0 -50 -11 -76 -24 l-48 -24 -51 24 c-29 13 -69 24 -90 24 -40 0 -101 -22 -127 -45 -14 -12 -22 -11 -68 12 -106 52 -236 39 -344 -35 -43 -29 -43 -29 -63 -9 -11 11 -45 31 -75 45 -107 51 -235 38 -329 -32 l-44 -33 -44 33 c-24 19 -69 41 -99 50 -41 12 -54 20 -54 34 0 28 -56 87 -93 98 -51 16 -87 23 -87 17z"/> <path d="M3371 2859 c13 -10 30 -19 37 -19 24 0 81 -64 94 -104 17 -52 36 -63 79 -43 19 8 41 17 50 20 9 3 27 27 40 53 20 39 33 51 76 70 64 29 75 44 25 34 -65 -12 -111 -49 -128 -103 -8 -23 -20 -32 -61 -46 l-51 -17 -6 30 c-14 72 -65 123 -138 136 l-42 8 25 -19z"/> <path d="M3836 2869 c3 -6 30 -21 59 -34 55 -26 78 -51 98 -113 11 -33 16 -37 42 -34 16 2 36 8 43 14 21 18 142 13 187 -7 22 -10 43 -17 47 -17 4 1 31 -22 61 -51 90 -86 120 -203 75 -293 l-22 -44 22 -63 c25 -70 24 -160 -2 -222 -72 -170 -283 -241 -436 -146 -25 15 -55 34 -67 41 -19 12 -26 11 -65 -15 -108 -73 -218 -87 -323 -40 -58 25 -84 25 -115 0 -8 -6 -36 -18 -63 -25 -41 -11 -53 -10 -95 5 -26 10 -55 25 -65 33 -15 14 -23 14 -50 3 -53 -22 -150 -47 -177 -45 -14 1 -43 5 -65 9 -83 16 -89 14 -99 -30 -23 -107 -81 -156 -177 -151 -85 4 -100 18 -159 145 -8 18 -45 38 -87 47 -6 1 -33 18 -59 38 -54 41 -62 43 -95 18 -86 -66 -186 -91 -276 -69 -35 9 -105 44 -133 67 l-25 20 -93 -47 c-76 -37 -102 -46 -145 -46 -88 1 -99 5 -222 82 -21 14 -27 12 -76 -21 -59 -40 -137 -66 -184 -62 -95 9 -114 15 -178 62 -51 37 -76 38 -112 5 -11 -10 -45 -29 -75 -43 -67 -29 -168 -32 -216 -7 -29 15 -35 15 -91 -3 -155 -48 -302 26 -382 193 -18 37 -33 67 -35 67 -2 0 1 -21 5 -47 11 -60 66 -140 126 -187 80 -63 199 -83 294 -51 40 14 49 14 88 0 91 -32 210 -10 301 56 l42 31 27 -25 c102 -96 277 -102 401 -13 l46 33 34 -29 c90 -74 230 -88 342 -33 32 15 65 36 74 46 15 17 18 16 62 -16 66 -47 138 -68 215 -63 67 4 155 39 195 78 l24 22 26 -25 c30 -27 92 -61 134 -71 21 -5 30 -16 42 -54 38 -114 160 -161 271 -105 45 23 73 62 86 123 7 30 13 56 14 58 1 1 21 -5 45 -13 76 -27 200 -12 263 31 16 10 27 7 74 -17 80 -42 176 -35 233 16 14 12 22 11 68 -12 104 -51 233 -40 339 32 l47 32 44 -34 c91 -69 235 -82 338 -30 68 35 148 123 169 188 22 64 17 198 -8 246 -16 31 -16 34 3 65 25 42 27 135 3 203 -24 72 -120 166 -196 194 -67 24 -153 27 -212 6 -53 -20 -52 -20 -59 24 -7 44 -67 107 -113 116 -58 13 -63 13 -57 4z"/> <path d="M1367 2758 l-27 -23 -2 -160 c-1 -113 -4 -149 -10 -122 -12 55 -63 124 -117 159 -43 27 -51 29 -118 25 -58 -3 -82 -10 -120 -33 -60 -37 -103 -115 -110 -200 -8 -96 -13 -75 -13 58 0 149 -8 167 -80 175 -37 3 -50 0 -75 -20 l-30 -25 -1 -239 c-1 -131 -2 -243 -3 -249 -1 -14 -41 -31 -63 -27 -9 2 -19 11 -22 19 -3 8 -6 117 -6 242 -1 125 -4 237 -7 250 -13 52 -117 71 -155 27 -20 -24 -21 -35 -23 -265 -2 -174 -6 -244 -15 -255 -15 -18 -69 -20 -76 -2 -2 7 -6 114 -8 237 -2 124 -5 235 -5 247 -1 14 -15 32 -37 46 -31 22 -40 23 -75 14 -68 -17 -69 -22 -70 -308 -1 -279 1 -286 60 -354 80 -92 167 -110 283 -59 36 16 39 16 96 -8 55 -24 73 -26 133 -15 33 6 97 46 125 78 12 13 29 45 39 72 10 26 19 47 20 47 2 0 14 -24 28 -53 71 -145 224 -192 343 -106 60 43 83 75 100 136 8 31 13 39 13 23 2 -66 93 -171 166 -192 58 -17 74 -16 135 4 82 28 120 65 149 149 19 52 20 53 26 24 14 -64 65 -128 130 -162 36 -19 145 -34 145 -19 0 5 3 7 6 3 10 -10 78 29 114 65 18 17 41 52 52 77 l20 46 18 -41 c42 -97 139 -161 233 -155 l37 2 0 -74 c0 -86 14 -110 72 -125 29 -8 42 -6 66 9 17 10 35 26 40 36 6 10 9 91 7 186 -1 92 1 169 5 172 4 2 7 -2 7 -9 0 -28 46 -107 80 -137 78 -68 155 -80 244 -38 34 16 70 39 80 51 34 39 61 111 62 161 0 26 4 47 8 47 4 0 7 -52 8 -116 0 -126 4 -138 58 -160 26 -12 37 -11 66 1 49 20 58 37 61 107 2 36 8 64 15 66 6 2 11 -4 11 -14 0 -37 73 -114 137 -145 58 -27 64 -29 115 -18 104 22 157 64 188 146 17 46 20 80 21 216 1 148 2 158 13 117 20 -68 32 -92 65 -127 36 -37 38 -43 12 -43 -11 0 -34 -12 -51 -27 -31 -26 -32 -29 -26 -80 9 -79 52 -140 125 -177 45 -24 129 -40 144 -28 7 5 27 13 45 17 35 7 102 69 130 120 11 19 16 53 16 95 -1 76 -24 131 -78 178 l-35 30 39 7 c47 8 69 30 74 76 7 68 -37 148 -108 196 -34 22 -54 28 -113 30 -76 2 -94 -3 -154 -50 -37 -28 -73 -89 -84 -141 -3 -15 -8 -27 -10 -25 -2 2 -5 73 -7 158 -4 153 -4 154 -32 177 -38 33 -94 32 -130 -1 -22 -21 -27 -33 -25 -65 2 -21 1 -41 -1 -43 -3 -3 -30 -7 -61 -10 -101 -9 -179 -65 -203 -148 -21 -69 -34 -59 -33 25 0 60 -3 80 -18 96 -17 19 -17 21 -2 38 45 50 1 132 -71 132 -77 0 -118 -69 -76 -128 15 -21 15 -25 0 -41 -9 -10 -16 -32 -16 -49 0 -44 -16 -48 -18 -4 -5 76 -98 111 -156 57 l-26 -24 -1 -178 c0 -98 0 -204 1 -235 2 -71 -12 -98 -49 -98 -16 0 -33 6 -38 13 -6 7 -11 112 -11 246 -1 129 -4 242 -7 253 -8 24 -56 48 -95 48 -21 0 -41 -9 -59 -27 -25 -26 -27 -33 -25 -100 1 -40 -1 -73 -4 -73 -4 0 -15 19 -25 43 -65 159 -227 205 -364 103 -38 -29 -62 -66 -78 -124 -6 -19 -10 -14 -36 37 -87 175 -294 191 -408 34 -15 -21 -32 -56 -37 -78 l-8 -40 -4 34 c-5 46 -71 132 -126 165 -34 20 -58 26 -100 26 l-56 0 0 44 c0 60 -23 87 -80 93 -37 3 -50 0 -73 -19z m108 -10 c23 -10 25 -16 25 -74 l0 -62 58 5 c46 4 66 1 98 -15 45 -23 100 -80 115 -119 5 -13 9 -113 9 -222 0 -184 -1 -200 -22 -241 -47 -91 -185 -138 -274 -92 -45 23 -85 63 -108 109 -14 28 -16 79 -16 366 l0 334 23 11 c30 14 61 14 92 0z m1917 -5 c22 -20 24 -66 2 -87 -9 -9 -32 -16 -54 -16 -22 0 -45 7 -54 16 -21 20 -20 63 1 86 20 23 80 24 105 1z m495 -9 c10 -14 13 -91 13 -326 0 -283 -2 -311 -20 -361 -11 -30 -30 -63 -43 -75 -36 -34 -108 -62 -163 -62 -65 0 -132 41 -174 107 l-30 47 0 195 c0 170 3 202 19 237 36 80 120 129 208 122 l53 -5 0 58 c0 49 4 60 23 74 28 20 96 14 114 -11z m-3652 -126 l25 -11 0 -249 0 -249 25 -24 c30 -31 56 -32 90 -2 l27 23 -1 246 c-2 245 -2 246 21 262 30 21 81 20 107 -1 20 -17 21 -27 24 -267 l2 -249 27 -20 c24 -18 30 -18 58 -7 17 7 35 21 40 31 6 10 10 125 10 262 l0 244 25 11 c35 16 66 15 93 -4 22 -15 22 -18 22 -263 0 -198 -3 -257 -15 -292 -43 -121 -175 -172 -293 -113 l-51 25 -31 -23 c-26 -19 -44 -23 -104 -23 -61 0 -79 4 -112 26 -22 14 -53 46 -69 69 l-30 43 -3 266 c-3 262 -3 266 19 284 25 20 57 22 94 5z m943 -4 c76 -31 131 -111 132 -189 0 -130 -80 -212 -217 -223 l-63 -5 0 -44 c0 -49 33 -93 70 -93 28 0 70 44 70 73 0 33 25 52 70 52 51 0 70 -19 70 -67 0 -75 -67 -162 -145 -188 -21 -7 -62 -10 -91 -8 -62 5 -109 37 -159 107 l-30 43 -3 173 c-5 248 15 307 120 359 60 30 121 34 176 10z m963 -7 c57 -31 106 -95 114 -151 9 -54 -5 -82 -45 -91 -45 -10 -82 13 -95 59 -8 29 -20 43 -43 55 -30 14 -34 13 -60 -6 -33 -24 -42 -76 -17 -103 9 -10 38 -20 68 -24 174 -23 255 -217 146 -349 -108 -131 -323 -85 -369 79 -17 61 -8 90 35 104 49 16 85 -3 102 -56 13 -40 43 -64 78 -64 27 0 55 38 55 73 0 44 -22 61 -95 76 -79 15 -127 48 -156 108 -57 116 -6 255 111 302 46 18 124 13 171 -12z m467 4 c43 -22 83 -63 106 -108 14 -28 16 -81 16 -397 0 -351 -1 -366 -19 -376 -11 -5 -34 -10 -51 -10 -63 0 -70 11 -70 113 l0 93 -58 -4 c-45 -3 -68 0 -99 17 -44 22 -111 93 -119 126 -3 12 -4 113 -2 226 3 204 3 206 30 246 53 81 182 117 266 74z m300 3 c22 -15 22 -18 22 -264 l0 -249 26 -20 c34 -26 54 -26 88 0 l26 20 0 249 c0 246 0 249 22 264 27 19 58 20 93 4 l26 -12 -3 -270 c-3 -248 -5 -274 -23 -311 -44 -87 -184 -131 -272 -87 -44 23 -99 80 -114 119 -5 13 -9 143 -9 287 0 263 0 263 23 274 32 16 69 14 95 -4z m480 0 c22 -15 22 -15 22 -344 0 -315 -1 -330 -19 -340 -27 -14 -82 -12 -103 4 -17 12 -18 40 -18 339 0 325 0 326 22 341 29 20 67 20 96 0z m891 -17 c45 -30 75 -71 92 -129 17 -55 6 -85 -39 -98 -53 -16 -83 -2 -96 45 -6 21 -23 47 -38 58 -23 17 -31 18 -57 8 -16 -7 -35 -26 -42 -42 -17 -43 12 -81 72 -92 24 -4 54 -10 67 -13 13 -2 43 -23 67 -45 104 -96 93 -252 -23 -334 -39 -27 -52 -30 -116 -30 -62 0 -78 4 -114 28 -53 35 -90 91 -98 147 -8 61 9 83 64 83 51 0 69 -14 78 -60 5 -26 14 -38 40 -51 32 -15 36 -15 62 5 33 24 42 76 17 103 -9 10 -37 21 -63 25 -110 16 -181 79 -197 176 -15 90 34 186 117 228 61 31 150 26 207 -12z m-1031 -103 c0 -15 -4 -22 -10 -16 -5 5 -6 16 -2 25 9 23 12 21 12 -9z m952 -55 c4 -8 14 -29 23 -47 l16 -32 -47 6 c-26 3 -53 11 -59 16 -33 27 1 93 40 79 12 -4 24 -14 27 -22z m-2116 2 c10 -11 16 -26 13 -33 -2 -7 2 -21 11 -31 14 -16 12 -17 -34 -11 -58 8 -74 19 -74 48 0 46 52 62 84 27z m678 -33 c-7 -7 -10 -5 -7 8 5 29 6 30 12 16 3 -8 1 -18 -5 -24z m487 -43 c-3 -70 -19 -60 -19 11 0 36 4 53 10 49 6 -4 10 -31 9 -60z m197 -29 c0 -52 -4 -92 -8 -90 -11 7 -10 184 1 184 5 0 8 -42 7 -94z m-1159 -47 l2 -121 -27 50 c-34 61 -51 84 -81 104 l-23 16 44 7 c35 5 48 13 62 36 9 16 18 29 19 29 1 0 3 -55 4 -121z m-948 -21 c0 -123 -1 -131 -15 -105 -10 19 -28 31 -58 39 l-43 11 38 38 c38 37 69 95 69 130 0 11 2 19 4 19 2 0 4 -60 5 -132z m492 62 c7 -19 30 -54 51 -76 l38 -42 -33 -6 c-19 -4 -42 -15 -52 -26 -10 -11 -21 -18 -25 -15 -4 2 -7 57 -7 122 0 65 3 109 7 98 5 -11 14 -36 21 -55z m926 -37 c-3 -10 -5 -2 -5 17 0 19 2 27 5 18 2 -10 2 -26 0 -35z m-1900 -20 c-3 -10 -5 -2 -5 17 0 19 2 27 5 18 2 -10 2 -26 0 -35z m2391 -33 c1 -28 -3 -48 -7 -45 -5 3 -9 27 -8 55 0 27 4 47 8 45 4 -3 7 -28 7 -55z m-481 -37 c-3 -10 -5 -2 -5 17 0 19 2 27 5 18 2 -10 2 -26 0 -35z m-1910 -5 c-3 -8 -6 -5 -6 6 -1 11 2 17 5 13 3 -3 4 -12 1 -19z m2593 -43 c0 -36 -3 -65 -7 -65 -5 0 -6 29 -5 65 2 36 6 65 8 65 2 0 4 -29 4 -65z m-2293 -6 c-26 -62 -57 -81 -87 -54 -12 11 -20 31 -20 50 0 29 2 31 38 33 47 2 70 6 78 15 14 13 12 7 -9 -44z m919 20 c31 -26 5 -91 -33 -84 -10 2 -21 4 -25 4 -4 1 -11 16 -16 34 -6 17 -13 39 -17 49 -6 14 -1 16 36 12 23 -2 48 -9 55 -15z m2120 0 c20 -16 17 -53 -5 -73 -28 -26 -63 -5 -83 50 l-16 45 46 -6 c24 -3 51 -10 58 -16z"/> <path d="M1532 2460 l-32 -20 2 -177 3 -178 37 -20 37 -20 28 21 28 21 3 176 2 175 -26 21 c-33 26 -41 26 -82 1z m76 -22 c6 -8 9 -77 9 -176 -2 -145 -4 -165 -20 -177 -23 -17 -56 -8 -66 19 -11 27 -8 317 2 334 5 6 21 12 36 12 16 0 33 -6 39 -12z"/> <path d="M3655 2468 c-42 -23 -45 -36 -45 -201 0 -87 4 -166 10 -176 5 -10 23 -24 40 -31 28 -11 34 -11 58 7 l27 20 3 176 2 175 -26 21 c-30 24 -40 25 -69 9z m63 -30 c8 -8 12 -61 12 -173 0 -112 -4 -165 -12 -173 -18 -18 -66 -15 -76 6 -13 23 -13 311 -1 334 11 21 58 25 77 6z"/> <path d="M1056 2459 c-22 -17 -26 -28 -26 -70 l0 -49 49 0 c42 0 53 4 70 26 27 35 26 59 -4 89 -30 30 -54 31 -89 4z m67 -13 c42 -32 18 -86 -39 -86 -30 0 -32 2 -32 35 0 25 6 40 21 50 26 18 27 18 50 1z"/> <path d="M2476 2459 l-26 -20 0 -174 0 -174 26 -20 c34 -26 54 -26 88 0 l26 20 0 174 0 174 -29 20 c-37 26 -52 26 -85 0z m85 -30 c5 -11 8 -85 7 -176 -3 -157 -3 -158 -28 -170 -20 -10 -29 -10 -45 1 -19 12 -20 25 -22 175 -1 150 0 163 18 180 24 22 55 17 70 -10z"/> <path d="M2912 1708 c3 -29 7 -33 36 -36 24 -2 32 -8 32 -23 0 -14 -7 -19 -25 -19 -14 0 -25 5 -25 10 0 6 -7 10 -15 10 -13 0 -14 -4 -5 -21 9 -16 19 -19 47 -17 68 6 71 70 4 76 -38 4 -44 32 -6 32 14 0 25 -4 25 -10 0 -5 5 -10 10 -10 6 0 10 9 10 20 0 17 -7 20 -46 20 -45 0 -45 0 -42 -32z"/> <path d="M3132 1720 c-9 -25 -3 -110 9 -110 5 0 9 18 9 40 0 33 3 40 19 40 16 0 20 -8 23 -37 2 -31 7 -39 26 -41 22 -3 42 22 27 36 -4 4 -10 1 -12 -5 -9 -24 -23 -13 -23 17 0 25 4 30 24 30 20 0 25 -6 31 -40 5 -30 11 -40 26 -40 14 0 19 7 19 30 0 17 5 30 10 30 6 0 10 -11 10 -25 0 -14 7 -28 15 -32 21 -7 22 -5 34 45 7 32 6 42 -2 39 -7 -2 -13 -16 -15 -30 -4 -33 -22 -25 -22 9 0 36 -34 28 -38 -9 -4 -37 -22 -35 -22 3 0 27 -3 30 -34 30 -19 0 -37 6 -40 13 -5 10 -7 10 -12 0 -7 -15 -44 -18 -44 -3 0 5 8 14 18 19 15 9 14 10 -6 11 -14 0 -26 -8 -30 -20z"/> <path d="M3734 1726 c-12 -31 1 -51 35 -56 19 -3 36 -11 39 -17 6 -19 -27 -28 -49 -15 -24 16 -29 15 -29 -3 0 -18 41 -29 75 -21 19 5 25 13 25 35 0 30 -14 41 -56 41 -15 0 -24 6 -24 15 0 18 41 20 58 3 15 -15 26 -4 19 17 -8 20 -85 21 -93 1z"/> <path d="M3950 1675 c0 -37 4 -65 10 -65 6 0 10 28 10 65 0 37 -4 65 -10 65 -6 0 -10 -28 -10 -65z"/> <path d="M4170 1730 c0 -5 7 -10 15 -10 8 0 15 5 15 10 0 6 -7 10 -15 10 -8 0 -15 -4 -15 -10z"/> <path d="M4098 1709 c-2 -7 -1 -30 2 -53 4 -33 9 -42 28 -44 22 -3 42 22 27 36 -4 4 -10 1 -12 -5 -9 -24 -23 -13 -23 16 0 23 5 31 23 34 l22 4 -22 2 c-13 0 -23 6 -23 11 0 14 -17 13 -22 -1z"/> <path d="M3024 1676 c-8 -34 12 -66 41 -66 29 0 49 32 41 66 -5 20 -13 24 -41 24 -28 0 -36 -4 -41 -24z m60 -1 c8 -21 -3 -45 -20 -45 -18 0 -28 24 -20 45 3 8 12 15 20 15 7 0 16 -7 20 -15z"/> <path d="M3405 1689 c-6 -8 1 -9 24 -4 25 5 31 3 31 -10 0 -9 -5 -13 -10 -10 -20 12 -51 -6 -48 -28 2 -18 10 -22 41 -24 l38 -1 -3 41 c-3 39 -5 42 -35 45 -17 2 -34 -2 -38 -9z m55 -49 c0 -5 -9 -10 -20 -10 -11 0 -20 5 -20 10 0 6 9 10 20 10 11 0 20 -4 20 -10z"/> <path d="M3500 1655 c0 -34 4 -45 15 -45 12 0 15 9 13 35 -2 35 11 61 19 38 6 -18 23 -16 23 2 0 10 -11 15 -35 15 -35 0 -35 0 -35 -45z"/> <path d="M3584 1673 c-4 -14 -2 -33 3 -42 12 -19 64 -22 70 -4 3 7 -5 11 -21 10 -33 -3 -34 17 -1 21 17 2 25 9 25 23 0 15 -7 19 -35 19 -29 0 -36 -4 -41 -27z m61 7 c4 -6 -5 -10 -20 -10 -15 0 -24 4 -20 10 3 6 12 10 20 10 8 0 17 -4 20 -10z"/> <path d="M3852 1658 c3 -42 4 -43 38 -43 34 0 35 1 35 40 0 39 -1 40 -38 43 l-38 3 3 -43z m56 -1 c3 -22 -1 -27 -17 -27 -15 0 -21 6 -21 23 0 46 33 49 38 4z"/> <path d="M4002 1658 c3 -41 4 -43 38 -45 35 -2 35 -2 36 43 1 31 -3 44 -13 44 -8 0 -13 -12 -13 -35 0 -24 -5 -35 -14 -35 -18 0 -29 31 -20 54 3 9 1 16 -6 16 -7 0 -10 -15 -8 -42z"/> <path d="M4170 1655 c0 -29 4 -45 13 -45 8 0 12 16 12 45 0 29 -4 45 -12 45 -9 0 -13 -16 -13 -45z"/> <path d="M4217 1679 c-9 -34 9 -69 37 -69 31 0 48 22 44 57 -3 24 -8 28 -39 31 -30 3 -37 -1 -42 -19z m58 -19 c0 -15 -6 -26 -16 -28 -19 -3 -31 21 -22 43 9 25 38 13 38 -15z"/> <path d="M4320 1656 c0 -55 17 -62 22 -8 2 25 8 37 18 37 10 0 16 -12 18 -37 2 -21 8 -38 13 -38 6 0 9 19 7 43 -3 41 -4 42 -40 45 l-38 3 0 -45z"/> <path d="M4422 1678 c2 -17 11 -24 31 -26 15 -2 27 -7 27 -12 0 -12 -29 -20 -35 -10 -8 13 -25 13 -25 0 0 -16 27 -23 55 -16 37 9 33 43 -5 51 -16 4 -30 11 -30 17 0 6 13 7 31 3 22 -5 29 -4 25 4 -4 6 -23 11 -42 11 -31 0 -35 -3 -32 -22z"/> </g> </svg> 