<?xml version="1.0" standalone="no"?>
<!DOCTYPE svg PUBLIC "-//W3C//DTD SVG 20010904//EN"
"http://www.w3.org/TR/2001/REC-SVG-20010904/DTD/svg10.dtd">
<svg version="1.0" xmlns="http://www.w3.org/2000/svg"
width="300.000000pt" height="84.000000pt" viewBox="0 0 300.000000 84.000000"
preserveAspectRatio="xMidYMid meet">
<metadata>
Created by potrace 1.10, written by Peter Selinger 2001-2011
</metadata>
<g transform="translate(0.000000,84.000000) scale(0.100000,-0.100000)"
fill="#000000" stroke="none">
<path d="M903 829 c-36 -10 -73 -52 -73 -81 0 -17 -4 -19 -32 -11 -49 12 -122
7 -158 -12 -30 -15 -34 -15 -74 4 -52 26 -72 26 -119 2 -36 -18 -38 -18 -74 0
-46 24 -68 24 -113 1 -34 -17 -37 -17 -77 1 -70 29 -150 1 -174 -61 -14 -36
-3 -39 29 -9 15 14 41 31 57 37 l30 11 -34 -28 -34 -29 0 -181 c0 -202 1 -208
71 -271 l37 -32 -32 16 c-18 8 -50 40 -70 69 -46 66 -63 76 -53 31 10 -46 24
-68 68 -108 51 -46 100 -62 166 -54 64 9 78 9 142 0 58 -7 105 5 158 41 31 21
36 22 48 8 22 -27 90 -53 139 -53 31 0 65 9 104 29 l58 29 36 -23 c69 -45 169
-45 237 2 30 20 41 23 54 14 8 -6 35 -21 59 -32 60 -29 145 -22 203 16 l40 27
27 -19 c14 -11 42 -25 61 -31 26 -9 39 -22 51 -51 22 -51 56 -73 115 -73 61 0
95 25 114 85 11 35 19 45 30 41 40 -17 118 -16 161 3 42 18 45 18 79 1 46 -23
97 -23 137 1 31 19 32 19 69 0 65 -33 154 -22 219 26 l31 23 27 -24 c71 -61
199 -57 273 8 59 52 77 99 70 182 -7 82 -7 89 0 176 5 60 3 69 -25 112 -53 82
-146 118 -251 95 -34 -7 -36 -5 -45 25 -14 46 -55 72 -112 72 -60 -1 -108 -25
-121 -62 -7 -20 -20 -31 -46 -39 -31 -10 -36 -9 -36 5 0 10 -9 31 -20 49 -42
70 -178 64 -216 -9 -8 -15 -20 -28 -27 -28 -7 0 -30 -9 -51 -19 -36 -19 -40
-19 -63 -4 -33 22 -102 21 -139 -1 -28 -17 -33 -17 -60 -3 -71 36 -148 30
-219 -19 l-38 -25 -22 21 c-32 30 -112 52 -160 44 -42 -7 -109 -37 -120 -53
-3 -6 -26 3 -52 19 -26 17 -55 30 -65 30 -12 0 -23 11 -30 30 -17 50 -99 79
-165 59z m1407 -85 c5 -13 21 -30 35 -40 34 -22 74 -5 120 51 19 23 45 47 59
54 23 13 28 11 65 -18 23 -18 41 -39 41 -47 0 -22 60 -54 90 -48 21 4 19 2
-10 -14 -19 -11 -43 -29 -54 -41 -27 -30 -36 -18 -36 48 0 62 -12 82 -58 96
-31 9 -68 -16 -85 -58 -10 -24 -21 -33 -41 -35 -35 -3 -75 -24 -105 -56 l-25
-26 -11 32 c-7 19 -8 40 -3 50 35 71 -52 124 -115 69 -14 -12 -18 -25 -14 -53
4 -28 1 -38 -8 -38 -8 0 -16 4 -19 9 -13 21 -58 18 -86 -6 l-29 -24 -3 -157
c-3 -132 -5 -157 -18 -157 -12 0 -16 26 -20 155 -3 85 -9 163 -14 172 -4 9
-20 21 -34 27 -35 12 -6 14 37 1 55 -15 118 11 191 81 l62 59 40 -31 c22 -18
44 -42 48 -55z m-1281 14 c45 -46 58 -64 46 -66 -28 -6 -43 5 -50 37 -8 35
-32 52 -77 53 -46 2 -68 -31 -68 -98 0 -30 -3 -54 -6 -54 -3 0 -21 12 -39 26
l-34 26 38 36 c21 21 42 44 47 52 11 18 54 49 70 49 6 1 39 -27 73 -61z m-45
-4 c11 -4 16 -19 16 -49 l0 -43 43 5 c51 5 97 -20 127 -69 17 -29 20 -51 20
-163 0 -149 -12 -186 -70 -217 -68 -36 -147 -18 -191 44 -22 31 -23 41 -26
252 -1 147 1 224 9 233 11 14 46 17 72 7z m1286 -14 c22 -42 -22 -74 -74 -54
-16 6 -22 54 -9 67 3 4 21 7 39 7 23 0 37 -6 44 -20z m318 8 c9 -9 12 -72 12
-222 0 -181 -3 -216 -18 -246 -39 -79 -148 -107 -212 -54 -52 45 -60 70 -60
204 0 138 11 175 61 211 25 17 47 24 82 24 l47 0 0 42 c0 24 5 43 13 46 23 10
63 7 75 -5z m-2308 -66 l-34 -29 -4 -159 c-2 -87 -5 -161 -7 -163 -2 -2 -11
-1 -20 2 -13 5 -15 31 -15 159 -1 158 -4 172 -45 196 -20 11 -20 11 2 12 12 0
24 -4 28 -9 5 -9 30 -8 84 3 13 3 26 8 29 11 3 3 8 5 11 5 3 0 -10 -13 -29
-28z m130 6 c14 0 41 3 60 6 26 5 29 4 15 -3 -45 -20 -50 -37 -55 -200 -4
-130 -8 -156 -20 -156 -13 0 -16 27 -20 162 -3 89 -7 164 -10 167 -3 3 -19 12
-35 21 l-30 17 35 -8 c19 -4 46 -7 60 -6z m196 -4 l42 -6 -32 -28 -31 -28 -19
33 c-11 19 -27 36 -35 38 -9 2 -5 2 9 0 14 -2 44 -6 66 -9z m1009 3 c-11 -7
-37 -29 -57 -50 l-37 -37 -21 22 c-11 12 -20 25 -20 30 0 4 -12 14 -27 22 -16
8 -25 15 -21 16 4 0 25 -9 47 -21 l40 -20 53 25 c55 27 77 33 43 13z m233 -29
c-12 -18 -24 -35 -26 -38 -2 -3 -10 4 -18 14 -7 11 -26 28 -41 38 l-28 18 40
-6 c22 -3 51 -1 65 4 34 13 35 9 8 -30z m-687 12 l40 -21 46 21 c58 26 62 25
27 -2 -16 -13 -38 -34 -49 -47 l-21 -23 -32 36 c-17 20 -36 36 -41 36 -5 0
-13 5 -16 10 -9 15 1 12 46 -10z m-1000 -10 c18 -10 19 -23 19 -180 0 -161 1
-170 21 -180 16 -9 26 -8 44 4 24 16 25 19 27 182 3 144 5 168 20 178 11 7 26
7 45 0 l28 -9 3 -173 c2 -161 4 -172 23 -182 16 -9 26 -8 45 5 24 15 24 16 24
184 0 179 1 181 48 181 42 -1 44 -10 42 -195 -1 -197 -7 -221 -63 -255 -39
-24 -114 -26 -145 -5 -19 14 -24 14 -51 0 -17 -8 -51 -15 -77 -15 -43 0 -51 4
-91 45 l-43 45 0 178 c0 125 4 182 12 190 15 15 43 15 69 2z m635 -6 c71 -34
100 -148 52 -209 -26 -34 -91 -64 -136 -65 -33 0 -33 -1 -27 -32 7 -33 29 -58
50 -58 16 0 42 31 47 55 4 22 45 36 71 23 25 -13 23 -78 -4 -112 -29 -38 -71
-56 -125 -56 -42 0 -51 5 -90 44 l-44 43 0 140 c0 129 2 143 23 174 42 63 117
84 183 53z m630 0 c87 -41 112 -170 32 -162 -17 2 -35 11 -39 21 -5 9 -13 25
-18 35 -18 38 -81 21 -81 -22 0 -30 18 -46 52 -46 100 0 169 -131 114 -214
-44 -68 -148 -88 -206 -40 -59 50 -80 127 -38 143 38 14 68 1 75 -31 8 -41 46
-58 73 -33 38 35 21 70 -41 81 -57 11 -88 32 -110 76 -37 73 -11 153 62 190
43 22 81 23 125 2z m314 1 c16 -8 40 -30 54 -48 l26 -34 0 -247 0 -246 -25
-12 c-19 -9 -29 -7 -51 7 -25 16 -26 20 -20 71 l6 54 -47 0 c-54 0 -95 22
-124 66 -16 25 -19 49 -19 162 0 159 10 190 73 221 50 25 87 26 127 6z m202 2
c10 -10 13 -53 12 -176 -1 -160 0 -163 23 -178 20 -13 26 -14 45 -1 21 14 22
20 19 175 -2 138 0 162 14 177 17 17 42 20 69 10 23 -9 24 -350 1 -395 -22
-41 -71 -69 -123 -69 -52 0 -90 20 -120 64 -21 30 -22 43 -22 213 0 136 3 183
13 186 23 10 56 7 69 -6z m312 3 l26 -10 0 -214 c0 -236 -1 -240 -62 -234
l-33 3 -3 220 c-2 198 -1 221 15 232 20 16 24 16 57 3z m586 -8 c63 -31 102
-121 66 -151 -20 -17 -67 -10 -77 12 -5 9 -13 25 -18 35 -11 22 -54 27 -70 8
-20 -24 -5 -65 24 -71 14 -3 37 -8 52 -11 39 -8 90 -64 98 -107 10 -53 -1 -85
-44 -129 -34 -34 -44 -38 -88 -38 -35 0 -60 7 -84 23 -62 41 -89 137 -42 149
32 8 68 -7 71 -29 2 -11 12 -29 23 -39 16 -14 24 -15 44 -6 46 21 30 79 -23
87 -63 10 -100 35 -123 82 -59 122 69 247 191 185z m120 -106 c0 -13 -6 -42
-14 -64 -8 -22 -13 -42 -11 -44 6 -5 14 -58 10 -58 -3 0 -14 18 -26 41 l-20
41 20 22 c12 13 21 36 21 54 0 18 5 32 10 32 6 0 10 -11 10 -24z m-2364 -302
c10 -14 33 -36 53 -50 43 -29 34 -31 -19 -4 -49 25 -70 25 -123 -1 l-42 -21
30 26 c17 14 33 25 36 26 3 0 12 11 19 25 17 32 25 31 46 -1z m684 -61 c0 -2
-13 3 -30 12 -37 19 -53 19 -92 -1 l-31 -16 39 45 39 45 38 -41 c20 -22 37
-42 37 -44z m1368 52 c12 -19 27 -35 32 -35 6 0 10 -5 10 -10 0 -6 -14 -3 -31
6 -31 15 -54 15 -93 -2 -15 -6 -11 3 14 34 18 23 36 42 39 42 3 0 16 -16 29
-35z m-1712 -15 c45 -42 47 -49 4 -25 -33 19 -64 19 -103 -1 l-32 -17 40 42
c22 22 42 41 44 41 2 0 23 -18 47 -40z m629 2 c19 -21 40 -39 47 -40 7 -1 29
-5 48 -9 29 -7 36 -14 38 -38 l4 -30 -34 33 c-19 17 -40 32 -47 32 -8 0 -29 9
-48 21 -32 20 -45 21 -101 4 -20 -7 -19 -4 10 29 17 20 35 36 40 36 4 0 24
-17 43 -38z m370 -36 l30 -16 -32 0 c-23 0 -38 -8 -57 -31 l-26 -31 0 73 0 73
28 -26 c15 -15 41 -34 57 -42z m252 -3 c15 -12 15 -13 -3 -13 -11 0 -25 5 -31
11 -9 9 -24 9 -60 -1 -68 -17 -99 -22 -92 -15 4 3 19 8 34 11 37 7 55 17 84
48 l24 26 14 -28 c8 -15 21 -33 30 -39z m181 14 c34 -27 28 -37 -7 -15 -15 9
-28 9 -60 -2 -23 -7 -44 -10 -48 -7 -3 4 0 7 8 7 9 0 23 17 33 37 15 32 20 35
29 23 7 -8 27 -27 45 -43z m-2012 -16 c5 -5 16 -11 24 -14 8 -2 2 -2 -15 1
-16 2 -46 4 -65 4 -25 -1 -31 1 -20 8 19 12 63 13 76 1z"/>
<path d="M1012 558 c-8 -8 -12 -50 -12 -125 0 -108 1 -113 24 -128 19 -13 29
-14 45 -5 19 10 21 20 21 128 0 124 -6 142 -45 142 -12 0 -26 -5 -33 -12z m53
-125 c0 -85 -2 -98 -17 -101 -16 -3 -18 7 -18 96 0 100 3 114 23 106 8 -3 12
-37 12 -101z"/>
<path d="M2422 558 c-8 -8 -12 -51 -12 -128 0 -113 1 -117 24 -129 18 -10 29
-10 45 -2 20 11 21 20 21 129 0 124 -6 142 -45 142 -12 0 -26 -5 -33 -12z m50
-79 c3 -111 -2 -149 -17 -149 -12 0 -15 18 -15 98 0 54 3 102 7 106 13 13 24
-12 25 -55z"/>
<path d="M701 561 c-7 -5 -15 -25 -17 -45 -4 -35 -4 -36 29 -36 21 0 41 8 52
20 36 40 -16 91 -64 61z"/>
<path d="M1646 554 c-13 -12 -16 -39 -16 -124 0 -106 1 -110 25 -126 22 -14
28 -15 48 -2 21 14 22 21 21 132 0 90 -4 120 -15 127 -21 13 -46 11 -63 -7z
m52 -123 c-2 -77 -6 -96 -18 -96 -12 0 -16 18 -18 89 -3 101 0 118 23 110 13
-5 15 -23 13 -103z"/>
<path d="M1947 84 c-4 -4 -7 -16 -7 -26 0 -13 7 -18 25 -18 26 0 33 -14 15
-25 -6 -4 -18 -1 -27 7 -14 11 -15 11 -11 -2 2 -8 16 -15 29 -15 17 0 25 6 27
23 3 16 -2 22 -17 22 -11 0 -22 4 -25 9 -9 14 20 21 34 8 10 -9 11 -9 8 3 -5
16 -39 25 -51 14z"/>
<path d="M2088 73 c-2 -10 -1 -31 3 -48 l7 -30 1 28 c1 35 31 38 31 2 0 -26
23 -35 36 -13 5 8 2 9 -9 5 -12 -5 -17 -1 -17 13 0 29 28 25 36 -5 8 -31 22
-32 33 -3 8 21 8 21 14 -3 7 -26 20 -19 32 19 4 13 2 22 -4 22 -6 0 -11 -10
-12 -22 l0 -23 -9 23 c-5 12 -14 22 -20 22 -5 0 -10 -10 -11 -22 l0 -23 -9 23
c-9 21 -29 27 -75 22 -16 -2 -17 0 -6 14 11 13 11 16 -2 16 -8 0 -17 -8 -19
-17z"/>
<path d="M2497 84 c-4 -4 -7 -16 -7 -26 0 -13 7 -18 25 -18 26 0 33 -14 15
-25 -6 -4 -18 -1 -27 7 -14 11 -15 11 -11 -2 2 -8 16 -15 29 -15 17 0 25 6 27
23 3 16 -2 22 -17 22 -11 0 -23 5 -27 11 -5 8 1 10 20 7 17 -4 25 -1 23 6 -4
13 -40 20 -50 10z"/>
<path d="M2636 48 c9 -59 14 -60 14 -5 0 26 -5 47 -10 47 -6 0 -8 -16 -4 -42z"/>
<path d="M2734 48 c3 -13 6 -29 6 -35 0 -7 7 -13 15 -13 8 0 15 5 15 11 0 5
-4 7 -10 4 -5 -3 -10 3 -10 14 0 12 6 21 13 21 8 0 7 4 -3 10 -24 16 -33 12
-26 -12z"/>
<path d="M2022 33 c2 -20 9 -28 23 -28 14 0 21 8 23 28 3 23 0 27 -23 27 -23
0 -26 -4 -23 -27z m36 0 c-5 -25 -28 -28 -28 -4 0 12 6 21 16 21 9 0 14 -7 12
-17z"/>
<path d="M2290 50 c24 -8 24 -8 3 -9 -16 -1 -23 -7 -23 -21 0 -15 6 -19 25
-18 20 2 25 8 25 30 0 24 -4 28 -27 27 l-28 -1 25 -8z"/>
<path d="M2390 35 c0 -29 25 -44 43 -26 9 9 8 11 -4 6 -10 -4 -20 -2 -24 4 -3
7 2 11 14 11 12 0 21 7 21 15 0 9 -9 15 -25 15 -20 0 -25 -5 -25 -25z"/>
<path d="M2570 29 c0 -26 3 -30 23 -27 16 2 23 11 25 31 3 23 0 27 -22 27 -22
0 -26 -4 -26 -31z m38 4 c-5 -25 -28 -28 -28 -4 0 12 6 21 16 21 9 0 14 -7 12
-17z"/>
<path d="M2660 46 c0 -30 13 -46 36 -46 20 0 24 5 24 30 0 17 -4 30 -10 30 -5
0 -10 -11 -10 -25 0 -14 -4 -25 -10 -25 -5 0 -10 11 -10 25 0 14 -4 25 -10 25
-5 0 -10 -6 -10 -14z"/>
<path d="M2780 29 c0 -17 4 -28 10 -24 6 3 10 17 10 31 0 13 -4 24 -10 24 -5
0 -10 -14 -10 -31z"/>
<path d="M2812 33 c3 -32 41 -45 51 -19 10 26 -3 46 -30 46 -21 0 -24 -4 -21
-27z"/>
<path d="M2881 28 c1 -30 2 -30 8 -9 9 35 29 37 34 4 4 -27 4 -27 6 5 1 28 -2
32 -24 32 -22 0 -25 -4 -24 -32z"/>
<path d="M2950 45 c0 -8 6 -15 14 -15 8 0 18 -5 22 -12 5 -8 0 -9 -14 -6 -12
4 -22 2 -22 -4 0 -14 43 -5 48 10 2 8 -6 16 -19 20 l-24 6 25 7 25 7 -27 1
c-19 1 -28 -4 -28 -14z"/>
</g>
</svg>
